<?xml version="1.0" encoding="UTF-8"?>
<!DOCTYPE svg PUBLIC "-//W3C//DTD SVG 1.1//EN" "http://www.w3.org/Graphics/SVG/1.1/DTD/svg11.dtd">
<!-- Creator: CorelDRAW 2019 (64-Bit) -->
<svg xmlns="http://www.w3.org/2000/svg" xml:space="preserve" width="19.753mm" height="19.753mm" version="1.1" style="shape-rendering:geometricPrecision; text-rendering:geometricPrecision; image-rendering:optimizeQuality; fill-rule:evenodd; clip-rule:evenodd"
viewBox="0 0 1961.14 1961.14"
 xmlns:xlink="http://www.w3.org/1999/xlink"
 xmlns:xodm="http://www.corel.com/coreldraw/odm/2003">
 <defs>
  <style type="text/css">
   <![CDATA[
    .fil0 {fill:none;fill-rule:nonzero}
    .fil1 {fill:#3E4095}
   ]]>
  </style>
 </defs>
 <g id="Capa_x0020_1">
  <metadata id="CorelCorpID_0Corel-Layer"/>
  <rect class="fil0" x="-0" y="0.01" width="1961.14" height="1959.69"/>
  <path class="fil1" d="M802.82 855.95l0 71c54.76,3.97 135.01,22.89 179.37,44.02 25.62,12.2 48.68,29.59 61.62,50.27 18.88,30.19 13.73,56.97 7.19,92.5 -13.33,72.39 -72.33,403.21 -96.32,459.32 -36.66,85.71 -117.27,115.27 -213.98,120.22 -91.77,4.7 -217.9,0.02 -307.03,-24.63 -45.31,-12.54 -45.5,-16.53 -80.36,-29.52 -0.27,0.42 -0.55,0.63 -0.65,1.33l-10.74 36.37c-10.55,42.09 -18.11,89.55 -18.07,135.06 0.03,27.96 -2.51,39.85 35.7,64.42 63.32,40.72 207.37,64.46 284.45,70.86 37.2,3.08 110.95,10.11 143.19,9.94l300.36 4.03c11.36,-0.01 13.37,-1.79 23.42,-2.08l168.35 -8.33c96.09,-12.56 161.37,-13.58 259.92,-46.31 31.94,-10.61 74.95,-29.17 93.72,-57.44 5.25,-7.9 4.33,-8.95 4.22,-21.3 -0.32,-34.81 0.2,-34.8 -4.15,-72.53 -8.92,-77.52 -25.58,-127.86 -58.72,-194.51 -36.44,-73.26 -82.3,-113.86 -143.56,-162.68l-33.41 -27.45c-16.09,-12.97 -62.61,-57.45 -72.05,-69.28 -4.04,-5.08 -7.87,-8.24 -12.59,-12.93 -35.54,-35.34 -69.46,-90.48 -94.85,-132.88 -6.94,-11.6 -10.81,-22.75 -16.53,-34.5 -39.95,-82.22 -43.19,-165.94 -43.19,-263.05l200.23 0c20.55,-38.84 35.33,-75.93 35.33,-135.44 -9.54,-5.05 -18.62,-11.76 -27.48,-17.67l-198.27 -131.52c8.82,-12.03 54.78,-33.77 98.16,-119.74 52.32,-103.71 35.85,-242.38 -38.98,-334.02 -16.38,-20.06 -34.72,-38.51 -55.8,-54.14 -13.36,-9.91 -53.97,-36.17 -70.34,-39.79l29.84 27.3c28.52,28.25 49.71,58.34 67.1,97.84 44.22,100.48 32.19,216.86 -34.92,303.75 -7.87,10.2 -17.35,22.48 -25.35,29.65 -6.86,6.14 -8.33,9.38 -14.73,14.63l-46.6 35.92c-16.63,11.68 -50.15,30.69 -71.4,38.06l102.15 120.31c2.82,2.92 23.99,27.09 25.17,30.03 5.3,13.21 -14.93,131.68 -29.08,135.01l-300.35 -0.12zm0 0l300.35 0.12c14.15,-3.33 34.38,-121.79 29.08,-135.01 -1.18,-2.94 -22.35,-27.11 -25.17,-30.03l-102.15 -120.31c21.26,-7.37 54.77,-26.38 71.4,-38.06l46.6 -35.92c6.4,-5.25 7.87,-8.5 14.73,-14.63 7.99,-7.17 17.47,-19.45 25.35,-29.65 67.11,-86.88 79.14,-203.26 34.92,-303.75 -17.38,-39.5 -38.57,-69.6 -67.1,-97.84l-29.84 -27.3c-29.02,-16.41 -85.99,-23.56 -121.49,-23.56 -134.43,-0.01 -254.77,85.55 -297.68,210.76 -21.78,63.6 -22.96,125.3 -6.62,187.75 9.82,37.49 26.62,70.38 46.34,98.94l23.9 29.11c10.42,10.4 1.63,5.55 18.43,18.87 3.76,2.99 5.45,5.23 9,8.67 5.76,5.6 16.22,11.77 20.15,17.15 -3.2,4.36 -7.14,6.14 -12.4,9.19 -39.17,22.76 -112.96,76.15 -156.03,103.09l-57.32 36.91c0,59.51 14.77,96.6 35.33,135.44l200.22 0.06zm-449.52 783.19c34.86,12.99 35.05,16.98 80.36,29.52 89.14,24.65 215.27,29.33 307.03,24.63 96.7,-4.95 177.32,-34.51 213.98,-120.22 24,-56.11 82.99,-386.94 96.32,-459.32 6.54,-35.53 11.7,-62.31 -7.19,-92.5 -12.94,-20.68 -36,-38.07 -61.62,-50.27 -44.36,-21.13 -124.6,-40.05 -179.37,-44.02 0,59.15 -16.53,125.88 -37.85,179.66l-23.38 49.25c-4.71,7.73 -7.93,14.56 -12.73,22.6 -4.76,7.98 -9.56,15.73 -14.36,22.94 -9.87,14.87 -19.32,27.73 -30.58,42.06l-23.91 29.09c-23.14,24.88 -34.41,41.19 -62.74,64.86l-38.16 34.47c-6.97,5.61 -12.54,11.1 -20.19,17.11 -33.8,26.55 -45.87,34.81 -78.17,67.11 -35.92,35.92 -66.73,82.72 -87.82,130.07 -4.39,9.85 -18.78,42.53 -19.65,52.97zm562.95 -1575.43c-65.56,9.31 -113.97,60.47 -135.9,110.11 -28.54,64.56 -35.45,155.87 77.22,104.81 29.1,-13.18 53.05,-28.63 75.74,-46.01 34.51,-26.42 29.01,-25.52 49.24,-43.05 15.28,-13.23 62.18,-72.73 32.32,-103.24 -19.65,-20.09 -64.31,-27.49 -98.63,-22.62z"/>
 </g>
</svg>
