<?xml version="1.0" encoding="UTF-8"?>
<!DOCTYPE svg PUBLIC "-//W3C//DTD SVG 1.1//EN" "http://www.w3.org/Graphics/SVG/1.1/DTD/svg11.dtd">
<!-- Creator: CorelDRAW 2019 (64-Bit) -->
<svg xmlns="http://www.w3.org/2000/svg" xml:space="preserve" width="19.753mm" height="19.9559mm" version="1.1" style="shape-rendering:geometricPrecision; text-rendering:geometricPrecision; image-rendering:optimizeQuality; fill-rule:evenodd; clip-rule:evenodd"
viewBox="0 0 951.29 961.06"
 xmlns:xlink="http://www.w3.org/1999/xlink"
 xmlns:xodm="http://www.corel.com/coreldraw/odm/2003">
 <defs>
  <style type="text/css">
   <![CDATA[
    .fil0 {fill:#3E4095;fill-rule:nonzero}
   ]]>
  </style>
 </defs>
 <g id="Capa_x0020_1">
  <metadata id="CorelCorpID_0Corel-Layer"/>
  <path class="fil0" d="M292.24 766.73c-61.48,0 -97.92,36.44 -97.92,97.15 0,48.61 36.44,97.18 97.92,97.18 48.6,0 85.04,-48.57 85.04,-97.18 0,-60.71 -36.44,-97.15 -85.04,-97.15zm-243.67 -669.55l48.57 0 170.82 365.15 -61.51 109.31c-36.44,72.87 12.16,145.75 85.79,145.75l522.29 0c24.27,0 36.44,-24.3 36.44,-48.57 0,-24.3 -12.16,-48.6 -36.44,-48.6l-522.29 0 48.6 -97.15 352.21 0c36.44,0 72.87,-12.16 85.04,-48.6l170.02 -303.63c12.16,-36.44 -12.14,-73.65 -48.57,-73.65l-693.09 0 -36.44 -60.74c-12.14,-24.3 -24.27,-36.44 -48.57,-36.44l-72.87 0c-24.3,0 -48.57,24.3 -48.57,48.57 0,36.44 24.27,48.6 48.57,48.6zm717.36 669.55c-60.71,0 -97.15,36.44 -97.15,97.15 0,48.61 36.44,97.18 97.15,97.18 48.6,0 85.04,-48.57 85.04,-97.18 0,-60.71 -36.44,-97.15 -85.04,-97.15z"/>
 </g>
</svg>
