<?xml version="1.0" encoding="UTF-8"?>
<!DOCTYPE svg PUBLIC "-//W3C//DTD SVG 1.1//EN" "http://www.w3.org/Graphics/SVG/1.1/DTD/svg11.dtd">
<!-- Creator: CorelDRAW 2019 (64-Bit) -->
<svg xmlns="http://www.w3.org/2000/svg" xml:space="preserve" width="19.753mm" height="19.7698mm" version="1.1" style="shape-rendering:geometricPrecision; text-rendering:geometricPrecision; image-rendering:optimizeQuality; fill-rule:evenodd; clip-rule:evenodd"
viewBox="0 0 1219.61 1220.65"
 xmlns:xlink="http://www.w3.org/1999/xlink"
 xmlns:xodm="http://www.corel.com/coreldraw/odm/2003">
 <defs>
  <style type="text/css">
   <![CDATA[
    .fil0 {fill:#3E4095;fill-rule:nonzero}
   ]]>
  </style>
 </defs>
 <g id="Capa_x0020_1">
  <metadata id="CorelCorpID_0Corel-Layer"/>
  <path class="fil0" d="M1219.61 625.98c0,-343.75 -265.58,-625.98 -609.32,-625.98 -329.06,0 -610.29,282.23 -610.29,625.98 0,281.23 218.74,532.15 484.33,594.67l0 -422.84 -109.35 0 0 -171.83 109.35 0c0,-161.87 -14.5,-374.97 219.7,-374.97l156.27 0 0 187.48 -125.01 0c-31.26,0 -62.48,31.22 -62.48,62.48l0 125.01 187.48 0 0 171.83 -187.48 0 0 422.84c312.45,-31.26 546.8,-282.23 546.8,-594.67z"/>
 </g>
</svg>
