<?xml version="1.0" encoding="UTF-8"?>
<!DOCTYPE svg PUBLIC "-//W3C//DTD SVG 1.1//EN" "http://www.w3.org/Graphics/SVG/1.1/DTD/svg11.dtd">
<!-- Creator: CorelDRAW 2019 (64-Bit) -->
<svg xmlns="http://www.w3.org/2000/svg" xml:space="preserve" width="19.953mm" height="19.953mm" version="1.1" style="shape-rendering:geometricPrecision; text-rendering:geometricPrecision; image-rendering:optimizeQuality; fill-rule:evenodd; clip-rule:evenodd"
viewBox="0 0 1981.14 1981.14"
 xmlns:xlink="http://www.w3.org/1999/xlink"
 xmlns:xodm="http://www.corel.com/coreldraw/odm/2003">
 <defs>
  <style type="text/css">
   <![CDATA[
    .str0 {stroke:#3E4095;stroke-width:19.86;stroke-miterlimit:22.9256}
    .fil0 {fill:#3E4095}
    .fil1 {fill:white}
   ]]>
  </style>
 </defs>
 <g id="Capa_x0020_1">
  <metadata id="CorelCorpID_0Corel-Layer"/>
  <g id="_2364441596592">
   <circle class="fil0 str0" cx="990.57" cy="990.57" r="980.64"/>
   <path class="fil1" d="M728.21 359.6l526.97 0c203.33,0 369.69,166.35 369.69,369.69l0 526.96c0,203.34 -166.36,369.69 -369.69,369.69l-526.97 0c-203.33,0 -369.69,-166.35 -369.69,-369.69l0 -526.96c0,-203.34 166.36,-369.69 369.69,-369.69zm-14.99 103.33l556.96 0c138.25,0 251.36,113.11 251.36,251.36l0 556.95c0,138.25 -113.11,251.36 -251.36,251.36l-556.96 0c-138.25,0 -251.36,-113.11 -251.36,-251.36l0 -556.95c0,-138.25 113.11,-251.36 251.36,-251.36z"/>
   <path class="fil1" d="M990.57 667.39c178.48,0 323.18,144.7 323.18,323.18 0,178.48 -144.7,323.18 -323.18,323.18 -178.48,0 -323.18,-144.7 -323.18,-323.18 0,-178.48 144.7,-323.18 323.18,-323.18zm0 104.89c120.56,0 218.29,97.73 218.29,218.29 0,120.56 -97.73,218.29 -218.29,218.29 -120.56,0 -218.29,-97.73 -218.29,-218.29 0,-120.56 97.73,-218.29 218.29,-218.29z"/>
   <circle class="fil1" cx="1331.9" cy="646.51" r="78.05"/>
  </g>
 </g>
</svg>
