<?xml version="1.0" encoding="UTF-8"?>
<!DOCTYPE svg PUBLIC "-//W3C//DTD SVG 1.1//EN" "http://www.w3.org/Graphics/SVG/1.1/DTD/svg11.dtd">
<!-- Creator: CorelDRAW 2019 (64-Bit) -->
<svg xmlns="http://www.w3.org/2000/svg" xml:space="preserve" width="19.753mm" height="9.7438mm" version="1.1" style="shape-rendering:geometricPrecision; text-rendering:geometricPrecision; image-rendering:optimizeQuality; fill-rule:evenodd; clip-rule:evenodd"
viewBox="0 0 1961.14 967.4"
 xmlns:xlink="http://www.w3.org/1999/xlink"
 xmlns:xodm="http://www.corel.com/coreldraw/odm/2003">
 <defs>
  <style type="text/css">
   <![CDATA[
    .fil1 {fill:#3E4095;fill-rule:nonzero}
    .fil0 {fill:white;fill-rule:nonzero}
   ]]>
  </style>
 </defs>
 <g id="Capa_x0020_1">
  <metadata id="CorelCorpID_0Corel-Layer"/>
  <rect class="fil0" x="-0" y="-0" width="1961.15" height="967.4"/>
  <path class="fil1" d="M1465.02 0l-297.65 0c-49.63,0 -99.2,49.63 -99.2,99.2 0,49.63 49.57,99.26 99.2,99.26l297.65 0c148.84,0 297.66,123.98 297.66,297.65 0,148.84 -148.83,272.82 -297.66,272.82l-297.65 0c-49.63,0 -99.2,49.62 -99.2,99.25 0,49.57 49.57,99.2 99.2,99.2l297.65 0c272.87,0 496.12,-223.25 496.12,-471.28 0,-272.87 -223.25,-496.12 -496.12,-496.12zm-869.71 496.12c0,49.57 49.57,74.41 99.2,74.41l572.05 0c49.63,0 99.26,-24.84 99.26,-74.41 0,-74.41 -49.63,-99.25 -99.26,-99.25l-572.05 0c-49.63,0 -99.2,24.84 -99.2,99.25zm198.4 272.82l-297.65 0c-173.62,0 -297.66,-123.98 -297.66,-272.82 0,-173.67 124.04,-297.65 297.66,-297.65l297.65 0c51.21,0 100.78,-49.63 100.78,-99.26 0,-49.57 -49.57,-99.2 -100.78,-99.2l-297.65 0c-272.82,0 -496.06,223.25 -496.06,496.12 0,248.03 223.24,471.28 496.06,471.28l297.65 0c51.21,0 100.78,-49.63 100.78,-99.2 0,-49.63 -49.57,-99.25 -100.78,-99.25z"/>
 </g>
</svg>
