<?xml version="1.0" encoding="UTF-8"?>
<!DOCTYPE svg PUBLIC "-//W3C//DTD SVG 1.1//EN" "http://www.w3.org/Graphics/SVG/1.1/DTD/svg11.dtd">
<!-- Creator: CorelDRAW 2019 (64-Bit) -->
<svg xmlns="http://www.w3.org/2000/svg" xml:space="preserve" width="19.953mm" height="16.5496mm" version="1.1" style="shape-rendering:geometricPrecision; text-rendering:geometricPrecision; image-rendering:optimizeQuality; fill-rule:evenodd; clip-rule:evenodd"
viewBox="0 0 1981.14 1643.22"
 xmlns:xlink="http://www.w3.org/1999/xlink"
 xmlns:xodm="http://www.corel.com/coreldraw/odm/2003">
 <defs>
  <style type="text/css">
   <![CDATA[
    .str0 {stroke:white;stroke-width:19.86;stroke-miterlimit:22.9256}
    .fil1 {fill:#3E4095;fill-rule:nonzero}
    .fil0 {fill:white;fill-rule:nonzero}
   ]]>
  </style>
 </defs>
 <g id="Capa_x0020_1">
  <metadata id="CorelCorpID_0Corel-Layer"/>
  <rect class="fil0 str0" x="9.92" y="9.92" width="1961.28" height="1623.36"/>
  <path class="fil1" d="M1768.54 9.93l-1555.94 0c-101.34,0 -202.67,101.34 -202.67,202.67l0 1218.02c0,101.34 101.34,202.67 202.67,202.67l1555.94 0c101.34,0 202.67,-101.34 202.67,-202.67l0 -1218.02c0,-101.34 -101.34,-202.67 -202.67,-202.67zm-33.84 439.09l-641.76 405.34c-67.58,33.75 -135.08,33.75 -204.83,0l-641.76 -405.34c0,-33.75 -33.75,-67.59 -33.75,-101.34 0,-67.59 67.5,-101.34 135.08,-67.59l643.92 439.18 641.76 -439.18c67.59,-33.75 135.17,0 135.17,67.59 0,33.75 0,67.59 -33.84,101.34z"/>
 </g>
</svg>
