<?xml version="1.0" encoding="UTF-8"?>
<!DOCTYPE svg PUBLIC "-//W3C//DTD SVG 1.1//EN" "http://www.w3.org/Graphics/SVG/1.1/DTD/svg11.dtd">
<!-- Creator: CorelDRAW 2019 (64-Bit) -->
<svg xmlns="http://www.w3.org/2000/svg" xml:space="preserve" width="19.9226mm" height="28.1378mm" version="1.1" style="shape-rendering:geometricPrecision; text-rendering:geometricPrecision; image-rendering:optimizeQuality; fill-rule:evenodd; clip-rule:evenodd"
viewBox="0 0 1978.1 2793.78"
 xmlns:xlink="http://www.w3.org/1999/xlink"
 xmlns:xodm="http://www.corel.com/coreldraw/odm/2003">
 <defs>
  <style type="text/css">
   <![CDATA[
    .str0 {stroke:#7A7A7A;stroke-width:16.84;stroke-miterlimit:4}
    .fil0 {fill:#3E4095}
   ]]>
  </style>
 </defs>
 <g id="Capa_x0020_1">
  <metadata id="CorelCorpID_0Corel-Layer"/>
  <g id="_2159925672752">
   <path class="fil0" d="M1001.27 8.42c-548.71,0 -992.85,444.21 -992.85,968.41 0,731.58 992.85,1804.48 992.85,1804.48 0,0 968.41,-1072.9 968.41,-1804.48 0,-524.2 -419.71,-968.41 -968.41,-968.41zm0 1334.23c-261.27,0 -444.15,-287.43 -313.55,-522.6 78.38,-104.49 182.94,-182.88 313.55,-182.88 261.33,0 444.21,287.38 287.43,522.54 -52.28,104.55 -156.77,182.94 -287.43,182.94z"/>
   <path class="fil0 str0" d="M1001.27 8.42c-548.71,0 -992.85,444.21 -992.85,968.41 0,731.58 992.85,1804.48 992.85,1804.48 0,0 968.41,-1072.9 968.41,-1804.48 0,-524.2 -419.71,-968.41 -968.41,-968.41zm0 1334.23c-261.27,0 -444.15,-287.43 -313.55,-522.6 78.38,-104.49 182.94,-182.88 313.55,-182.88 261.33,0 444.21,287.38 287.43,522.54 -52.28,104.55 -156.77,182.94 -287.43,182.94z"/>
  </g>
 </g>
</svg>
