<?xml version="1.0" encoding="UTF-8"?>
<!DOCTYPE svg PUBLIC "-//W3C//DTD SVG 1.1//EN" "http://www.w3.org/Graphics/SVG/1.1/DTD/svg11.dtd">
<!-- Creator: CorelDRAW 2019 (64-Bit) -->
<svg xmlns="http://www.w3.org/2000/svg" xml:space="preserve" width="19.753mm" height="20.5122mm" version="1.1" style="shape-rendering:geometricPrecision; text-rendering:geometricPrecision; image-rendering:optimizeQuality; fill-rule:evenodd; clip-rule:evenodd"
viewBox="0 0 1961.14 2036.52"
 xmlns:xlink="http://www.w3.org/1999/xlink"
 xmlns:xodm="http://www.corel.com/coreldraw/odm/2003">
 <defs>
  <style type="text/css">
   <![CDATA[
    .fil0 {fill:#3E4095;fill-rule:nonzero}
   ]]>
  </style>
 </defs>
 <g id="Capa_x0020_1">
  <metadata id="CorelCorpID_0Corel-Layer"/>
  <path class="fil0" d="M1094.79 226.03c339.03,75.37 602.69,339.03 640.34,715.79 0,37.64 37.73,75.29 113,75.29 0,0 0,0 0,0 75.38,0 113.01,-75.29 113.01,-113.01 -75.29,-452.05 -414.32,-828.72 -866.36,-904.09 -37.74,0 -113.01,37.74 -113.01,113.01 0,75.38 37.64,113.01 113.01,113.01zm37.64 263.75c-75.38,-37.73 -113.01,0 -150.65,75.29 0,37.73 37.64,113.01 75.28,150.74 113.01,0 226.03,113 226.03,226.02 37.73,37.64 75.37,75.29 113,75.29 0,0 37.74,0 37.74,0 37.64,0 75.28,-75.29 75.28,-150.65 -37.64,-188.38 -188.29,-339.03 -376.67,-376.68zm640.43 904.09l-263.76 -37.73c-75.28,0 -150.65,37.73 -188.29,75.37l-188.38 188.38c-303.71,-150.74 -567.37,-414.4 -718.12,-715.79l188.39 -226.02c37.64,-37.65 75.37,-113.01 75.37,-188.3l-37.73 -263.75c-37.64,-113.01 -113.01,-226.03 -226.03,-226.03l-188.29 0c-113,0 -226.02,113.01 -226.02,226.03 75.28,979.46 828.72,1735.11 1735.12,1810.49 113,0 226.02,-113.01 226.02,-228.34l0 -188.29c0,-113.01 -75.29,-226.02 -188.29,-226.02z"/>
 </g>
</svg>
