<?xml version="1.0" encoding="UTF-8"?>
<!DOCTYPE svg PUBLIC "-//W3C//DTD SVG 1.1//EN" "http://www.w3.org/Graphics/SVG/1.1/DTD/svg11.dtd">
<!-- Creator: CorelDRAW 2019 (64-Bit) -->
<svg xmlns="http://www.w3.org/2000/svg" xml:space="preserve" width="19.7532mm" height="19.7532mm" version="1.1" style="shape-rendering:geometricPrecision; text-rendering:geometricPrecision; image-rendering:optimizeQuality; fill-rule:evenodd; clip-rule:evenodd"
viewBox="0 0 1975.32 1975.32"
 xmlns:xlink="http://www.w3.org/1999/xlink"
 xmlns:xodm="http://www.corel.com/coreldraw/odm/2003">
 <defs>
  <style type="text/css">
   <![CDATA[
    .fil0 {fill:#3E4095}
   ]]>
  </style>
 </defs>
 <g id="Capa_x0020_1">
  <metadata id="CorelCorpID_0Corel-Layer"/>
  <path class="fil0" d="M1975.32 987.66c0,-545.47 -442.19,-987.66 -987.66,-987.66 -545.47,0 -987.66,442.19 -987.66,987.66 0,545.47 442.19,987.66 987.66,987.66 545.47,0 987.66,-442.19 987.66,-987.66zm-1363.04 429.23l177.79 -56.89c74.56,49.09 160.91,76.3 253.8,79.47 258.54,0 468.12,-208.26 468.12,-465.17 0,-256.91 -209.58,-465.17 -468.12,-465.17 -257.26,-0.09 -465.78,208.08 -464.5,464.9 5.68,105.65 36.16,199.82 86.79,267.99 4.54,8.13 -46.82,153.37 -53.87,174.86l-0.01 0.01zm-37.7 -157.16l-101.75 289.78 307.25 -95.58c78.75,42.92 169.15,67.33 265.3,67.33 305.18,0 552.59,-245.85 552.59,-549.13 0,-303.27 -247.41,-549.11 -552.59,-549.11 -305.2,0 -552.62,245.85 -552.62,549.11 0,103.27 28.71,199.91 78.61,282.4 1.06,1.74 2.12,3.46 3.17,5.18l0.04 0.02zm343.61 -319.11c-15.05,-26 50.48,-51.14 43.74,-76.39 -12.14,-45.52 -35.8,-94.48 -58.67,-136.17 -4.63,-8.44 -19.39,-7.2 -30.89,-7.69 -11.52,-0.48 -24.5,-2.07 -32.76,5.46 -32.74,29.92 -59.82,67.55 -64.78,118.45 -4.96,50.92 30.14,118.36 102.96,209.25 72.82,90.89 226.26,176.75 310.56,178.16 84.28,1.41 106.49,-33.71 123.74,-56.1 17.23,-22.36 26.86,-64.4 10.51,-76.68 -30.19,-22.69 -106.6,-66.12 -128.98,-62.27 -32.08,5.53 -45.48,68.68 -72.8,70.86 -27.3,2.18 -152.54,-80.42 -202.62,-166.9l-0.01 0.02z"/>
 </g>
</svg>
