<?xml version="1.0" encoding="UTF-8"?>
<!DOCTYPE svg PUBLIC "-//W3C//DTD SVG 1.1//EN" "http://www.w3.org/Graphics/SVG/1.1/DTD/svg11.dtd">
<!-- Creator: CorelDRAW 2019 (64-Bit) -->
<svg xmlns="http://www.w3.org/2000/svg" xml:space="preserve" width="19.753mm" height="19.753mm" version="1.1" style="shape-rendering:geometricPrecision; text-rendering:geometricPrecision; image-rendering:optimizeQuality; fill-rule:evenodd; clip-rule:evenodd"
viewBox="0 0 896.51 896.51"
 xmlns:xlink="http://www.w3.org/1999/xlink"
 xmlns:xodm="http://www.corel.com/coreldraw/odm/2003">
 <defs>
  <style type="text/css">
   <![CDATA[
    .str0 {stroke:#3E4095;stroke-width:9.08;stroke-miterlimit:22.9256}
    .fil0 {fill:#3E4095}
    .fil1 {fill:white}
   ]]>
  </style>
 </defs>
 <g id="Capa_x0020_1">
  <metadata id="CorelCorpID_0Corel-Layer"/>
  <g id="_2178164978512">
   <circle class="fil0" cx="448.26" cy="448.26" r="448.26"/>
   <path class="fil1 str0" d="M277.89 643.07l80.69 -25.82c33.84,22.28 73.03,34.63 115.19,36.07 117.34,0 212.46,-94.52 212.46,-211.12 0,-116.6 -95.12,-211.12 -212.46,-211.12 -116.76,-0.04 -211.4,94.44 -210.82,211 2.58,47.95 16.41,90.69 39.39,121.63 2.06,3.69 -21.25,69.61 -24.45,79.36zm-17.11 -71.33l-46.18 131.52 139.45 -43.38c35.74,19.48 76.77,30.56 120.41,30.56 138.51,0 250.8,-111.58 250.8,-249.23 0,-137.64 -112.29,-249.22 -250.8,-249.22 -138.52,0 -250.81,111.58 -250.81,249.22 0,46.87 13.03,90.73 35.68,128.17 0.48,0.79 0.96,1.57 1.44,2.35z"/>
   <path class="fil1" d="M416.73 426.91c-6.83,-11.8 22.91,-23.21 19.85,-34.67 -5.51,-20.66 -16.25,-42.88 -26.63,-61.8 -2.1,-3.83 -8.8,-3.27 -14.02,-3.49 -5.23,-0.22 -11.12,-0.94 -14.87,2.48 -14.86,13.58 -27.15,30.66 -29.4,53.76 -2.25,23.11 13.68,53.72 46.73,94.97 33.05,41.25 102.69,80.22 140.95,80.86 38.25,0.64 48.33,-15.3 56.16,-25.46 7.82,-10.15 12.19,-29.23 4.77,-34.8 -13.7,-10.3 -48.38,-30.01 -58.54,-28.26 -14.56,2.51 -20.64,31.17 -33.04,32.16 -12.39,0.99 -69.23,-36.5 -91.96,-75.75z"/>
  </g>
 </g>
</svg>
