<?xml version="1.0" encoding="UTF-8"?>
<!DOCTYPE svg PUBLIC "-//W3C//DTD SVG 1.1//EN" "http://www.w3.org/Graphics/SVG/1.1/DTD/svg11.dtd">
<!-- Creator: CorelDRAW 2019 (64-Bit) -->
<svg xmlns="http://www.w3.org/2000/svg" xml:space="preserve" width="62.6198mm" height="10.6623mm" version="1.1" style="shape-rendering:geometricPrecision; text-rendering:geometricPrecision; image-rendering:optimizeQuality; fill-rule:evenodd; clip-rule:evenodd"
viewBox="0 0 6247.75 1063.81"
 xmlns:xlink="http://www.w3.org/1999/xlink"
 xmlns:xodm="http://www.corel.com/coreldraw/odm/2003">
 <defs>
  <style type="text/css">
   <![CDATA[
    .str0 {stroke:white;stroke-width:19.95;stroke-miterlimit:22.9256}
    .fil0 {fill:#3E4095}
    .fil1 {fill:white;fill-rule:nonzero}
   ]]>
  </style>
 </defs>
 <g id="Capa_x0020_1">
  <metadata id="CorelCorpID_0Corel-Layer"/>
  <g id="_2160037274096">
   <rect class="fil0" x="-0.01" y="-0" width="6247.75" height="1063.81"/>
   <path class="fil1 str0" d="M5583.6 434.29c24.4,0 36.6,-12.16 36.6,-36.6l0 -73.18 73.18 0c24.41,0 48.79,-24.35 48.79,-36.6 0,-25.16 -24.37,-37.34 -48.79,-37.34l-73.18 0 0 -85.38c0,-12.22 -12.19,-36.6 -36.6,-36.6 -24.4,0 -36.6,24.37 -36.6,36.6l0 85.38 -73.19 0c-24.4,0 -36.59,12.18 -36.59,37.34 0,12.24 12.18,36.6 36.59,36.6l73.19 0 0 73.18c0,24.43 12.19,36.6 36.6,36.6zm-195.17 341.6c-36.6,0 -73.18,36.6 -73.18,85.38 0,36.6 36.59,73.94 73.18,73.94 48.79,0 85.38,-37.34 85.38,-73.94 0,-48.78 -36.59,-85.38 -85.38,-85.38zm390.33 0c-48.79,0 -85.39,36.6 -85.39,85.38 0,36.6 36.6,73.94 85.39,73.94 36.59,0 73.18,-37.34 73.18,-73.94 0,-48.78 -36.6,-85.38 -73.18,-85.38zm-341.54 -182.97l280.57 0c24.37,0 60.97,-24.41 73.18,-36.6l121.97 -243.97c12.19,-12.19 0,-37.37 -12.18,-49.6 -24.41,-12.18 -36.6,0 -48.82,12.22l-134.15 232.51 -268.39 0 -146.38 -317.92c-12.19,-12.19 -24.37,-24.37 -36.6,-24.37l-61.75 0c-24.37,0 -36.6,24.37 -36.6,36.59 0,24.38 12.22,48.79 36.6,48.79l37.37 0 134.16 281.35 -48.79 97.59c-24.4,48.79 12.19,109.79 61,109.79l426.92 0c12.22,0 36.6,-12.25 36.6,-36.6 0,-24.4 -24.37,-36.6 -36.6,-36.6l-426.92 0 48.79 -73.18z"/>
  </g>
 </g>
</svg>
