<?xml version="1.0" encoding="UTF-8"?>
<!DOCTYPE svg PUBLIC "-//W3C//DTD SVG 1.1//EN" "http://www.w3.org/Graphics/SVG/1.1/DTD/svg11.dtd">
<!-- Creator: CorelDRAW 2019 (64-Bit) -->
<svg xmlns="http://www.w3.org/2000/svg" xml:space="preserve" width="16px" height="16px" version="1.1" style="shape-rendering:geometricPrecision; text-rendering:geometricPrecision; image-rendering:optimizeQuality; fill-rule:evenodd; clip-rule:evenodd"
viewBox="0 0 44.94 44.97"
 xmlns:xlink="http://www.w3.org/1999/xlink"
 xmlns:xodm="http://www.corel.com/coreldraw/odm/2003">
 <defs>
  <style type="text/css">
   <![CDATA[
    .fil0 {fill:#3E4095}
   ]]>
  </style>
 </defs>
 <g id="Capa_x0020_1">
  <metadata id="CorelCorpID_0Corel-Layer"/>
  <path class="fil0" d="M31.62 28.28l-1.66 0 -0.83 -0.83c2.49,-2.49 4.16,-6.65 4.16,-10.81 0,-9.15 -7.49,-16.64 -16.65,-16.64 -9.15,0 -16.64,7.49 -16.64,16.64 0,9.15 7.49,16.64 16.64,16.64 4.16,0 8.32,-1.67 10.82,-4.16l0.83 0.83 0 2.49 12.49 12.53 4.16 -3.38 -13.32 -13.31zm-14.98 0c-5.82,0 -11.65,-4.99 -11.65,-11.64 0,-5.83 5.83,-11.65 11.65,-11.65 6.66,0 11.65,5.82 11.65,11.65 0,6.65 -4.99,11.64 -11.65,11.64z"/>
  <rect class="fil0" x="8.29" y="15.43" width="16.31" height="2.38"/>
  <rect class="fil0" transform="matrix(2.40802E-15 -0.0909216 0.0598956 1.58631E-15 15.2546 24.7751)" width="179.37" height="39.73"/>
 </g>
</svg>
