<?xml version="1.0" encoding="UTF-8"?>
<!DOCTYPE svg PUBLIC "-//W3C//DTD SVG 1.1//EN" "http://www.w3.org/Graphics/SVG/1.1/DTD/svg11.dtd">
<!-- Creator: CorelDRAW 2019 (64-Bit) -->
<svg xmlns="http://www.w3.org/2000/svg" xml:space="preserve" width="19.753mm" height="19.7698mm" version="1.1" style="shape-rendering:geometricPrecision; text-rendering:geometricPrecision; image-rendering:optimizeQuality; fill-rule:evenodd; clip-rule:evenodd"
viewBox="0 0 1961.14 1962.81"
 xmlns:xlink="http://www.w3.org/1999/xlink"
 xmlns:xodm="http://www.corel.com/coreldraw/odm/2003">
 <defs>
  <style type="text/css">
   <![CDATA[
    .fil0 {fill:#FFF212}
   ]]>
  </style>
 </defs>
 <g id="Capa_x0020_1">
  <metadata id="CorelCorpID_0Corel-Layer"/>
  <path class="fil0" d="M1380.09 1234.41l-72.66 0 -36.29 -36.28c108.94,-108.92 181.53,-290.48 181.53,-472.05 0,-399.32 -326.86,-726.08 -726.3,-726.08 -399.52,0 -726.38,326.76 -726.38,726.08 0,399.41 326.86,726.17 726.38,726.17 181.53,0 363.15,-72.64 472.1,-181.56l36.29 36.37 0 108.91 544.76 546.84 181.62 -147.52 -581.06 -580.89zm-653.71 0c-254.27,0 -508.47,-217.84 -508.47,-508.33 0,-254.12 254.19,-508.24 508.47,-508.24 290.48,0 508.39,254.13 508.39,508.24 0,290.49 -217.91,508.33 -508.39,508.33z"/>
 </g>
</svg>
