<?xml version="1.0" encoding="UTF-8"?>
<!DOCTYPE svg PUBLIC "-//W3C//DTD SVG 1.1//EN" "http://www.w3.org/Graphics/SVG/1.1/DTD/svg11.dtd">
<!-- Creator: CorelDRAW 2019 (64-Bit) -->
<svg xmlns="http://www.w3.org/2000/svg" xml:space="preserve" width="16.0108mm" height="17.7812mm" version="1.1" style="shape-rendering:geometricPrecision; text-rendering:geometricPrecision; image-rendering:optimizeQuality; fill-rule:evenodd; clip-rule:evenodd"
viewBox="0 0 1586.95 1762.42"
 xmlns:xlink="http://www.w3.org/1999/xlink"
 xmlns:xodm="http://www.corel.com/coreldraw/odm/2003">
 <defs>
  <style type="text/css">
   <![CDATA[
    .str0 {stroke:#3E4095;stroke-width:7.55;stroke-miterlimit:22.9256}
    .fil0 {fill:#3E4095;fill-rule:nonzero}
   ]]>
  </style>
 </defs>
 <g id="Capa_x0020_1">
  <metadata id="CorelCorpID_0Corel-Layer"/>
  <path id="形状" class="fil0 str0" d="M993.46 3.78c75.54,0 142.6,48.33 166.48,119.99l47.75 143.23 287.73 0c48.46,0 87.75,39.29 87.75,87.75 0,48.46 -39.29,87.74 -87.75,87.75l-0.22 6.24 0 0 -76.11 1065.42c-9.83,137.76 -124.45,244.48 -262.55,244.48l-726.12 0c-138.11,0 -252.73,-106.72 -262.57,-244.48l-76.1 -1065.42c-0.15,-2.09 -0.22,-4.18 -0.22,-6.24 -48.46,-0.01 -87.75,-39.29 -87.75,-87.75 0,-48.46 39.29,-87.75 87.75,-87.75l287.73 0 47.75 -143.23c23.88,-71.66 90.94,-119.99 166.48,-119.99l399.98 0zm326.25 438.72l-1052.48 0 75.65 1059.17c3.28,45.92 41.49,81.49 87.53,81.49l726.12 0c46.03,0 84.23,-35.57 87.51,-81.49l75.67 -1059.17zm-701.73 263.23c45,0 82.09,33.87 87.15,77.51l0.59 10.24 0 438.71c0,48.46 -39.29,87.74 -87.75,87.74 -45,0 -82.09,-33.87 -87.15,-77.51l-0.58 -10.23 0 -438.71c0,-48.47 39.28,-87.75 87.74,-87.75zm350.97 0c48.46,0 87.74,39.28 87.74,87.75l0 438.71c0,48.46 -39.28,87.74 -87.74,87.74 -48.46,0 -87.75,-39.28 -87.75,-87.74l0 -438.71c0,-48.47 39.29,-87.75 87.75,-87.75zm24.5 -526.46l-399.98 0 -29.25 87.74 458.48 0 -29.25 -87.74z"/>
 </g>
</svg>
