<?xml version="1.0" encoding="UTF-8"?>
<!DOCTYPE svg PUBLIC "-//W3C//DTD SVG 1.1//EN" "http://www.w3.org/Graphics/SVG/1.1/DTD/svg11.dtd">
<!-- Creator: CorelDRAW 2019 (64-Bit) -->
<svg xmlns="http://www.w3.org/2000/svg" xml:space="preserve" width="195.548mm" height="12.5814mm" version="1.1" style="shape-rendering:geometricPrecision; text-rendering:geometricPrecision; image-rendering:optimizeQuality; fill-rule:evenodd; clip-rule:evenodd"
viewBox="0 0 19540.59 1257.22"
 xmlns:xlink="http://www.w3.org/1999/xlink"
 xmlns:xodm="http://www.corel.com/coreldraw/odm/2003">
 <defs>
  <style type="text/css">
   <![CDATA[
    .fil0 {fill:#3E4095;fill-rule:nonzero}
   ]]>
  </style>
 </defs>
 <g id="Capa_x0020_17">
  <metadata id="CorelCorpID_0Corel-Layer"/>
  <path class="fil0" d="M434.86 429.79l0 -123.8c0,-34.69 -4.8,-57.82 -14.1,-69.1 -9.3,-11.28 -28.2,-16.92 -56.97,-16.92 -28.2,0 -46.53,5.64 -55.84,16.64 -9.02,11 -13.53,34.13 -13.53,69.38l0 646.94c0,35.25 4.51,58.38 13.53,69.38 9.31,11 27.64,16.64 55.84,16.64 28.77,0 47.67,-5.64 56.97,-16.92 9.3,-11.28 14.1,-34.4 14.1,-69.1l0 -167.8 260.59 0 0 127.19c0,82.92 -4.24,142.42 -12.69,179.08 -8.74,36.66 -23.13,67.69 -43.44,93.07 -21.43,27.07 -49.06,45.97 -82.91,56.68 -34.13,10.72 -95.89,16.08 -185.56,16.08 -104.63,0 -175.7,-5.36 -213.2,-16.08 -37.22,-10.71 -68.53,-29.61 -93.35,-56.68 -23.12,-25.38 -39.48,-56.69 -49.35,-93.91 -9.86,-37.23 -14.94,-96.45 -14.94,-178.24l0 -566.85c0,-81.5 4.79,-140.73 14.38,-177.67 9.59,-36.94 26.23,-67.97 49.91,-93.35 25.38,-27.64 58.95,-46.82 100.4,-57.81 41.74,-11 110.27,-16.64 206.16,-16.64 82.06,0 141.57,5.36 178.8,16.07 37.22,10.72 66.55,29.62 87.99,56.69 20.86,25.38 35.81,56.97 44.56,94.76 8.74,37.5 13.26,97.01 13.26,177.95l0 84.32 -260.59 0zm405.82 812.21l0 -1226.76 285.96 0 0 1006.8 270.73 0 0 219.97 -556.69 0zm675.72 -1226.76l285.96 0 0 934.32c0,34.12 5.08,56.96 14.95,68.53 9.86,11.56 30.17,17.48 61.2,17.48 30.46,0 50.76,-5.92 60.92,-17.48 10.15,-11.57 15.23,-34.41 15.23,-68.53l0 -934.32 274.12 0 0 831.09c0,95.89 -5.08,166.11 -14.95,210.39 -9.87,44.28 -26.23,82.07 -49.35,112.81 -24.81,32.15 -58.66,54.71 -101.25,67.96 -42.58,13.26 -106.6,19.75 -191.77,19.75 -87.14,0 -151.44,-6.49 -193.18,-19.75 -42.02,-13.25 -75.02,-35.81 -99.27,-67.96 -22.56,-29.61 -38.63,-66.27 -48.22,-109.99 -9.59,-43.43 -14.38,-114.5 -14.38,-213.2l0 -831.09zm1169.23 502.54l79.53 0c35.53,0 58.94,-6.2 70.5,-18.33 11.57,-12.13 17.49,-35.25 17.49,-69.38l0 -109.7c0,-34.4 -5.92,-57.53 -17.49,-69.94 -11.56,-12.41 -34.96,-18.62 -70.5,-18.62l-79.53 0 0 285.96zm0 189.52l0 319.81 86.3 0c34.97,0 58.38,-6.21 70.23,-18.62 11.84,-12.41 17.77,-35.53 17.77,-69.94l0 -142.14c0,-34.13 -5.93,-57.53 -18.06,-70.22 -12.12,-12.69 -35.53,-18.9 -69.94,-18.9l-86.3 0zm461.94 279.2c0,98.14 -22.84,165.26 -68.81,201.35 -45.97,36.1 -139.32,54.15 -279.48,54.15l-396.23 0 0 -1226.76 382.13 0c140.44,0 234.07,18.33 280.61,55.27 46.53,36.94 69.94,104.34 69.94,201.92l0 107.45c0,67.68 -14.95,118.72 -44.84,153.13 -29.62,34.41 -79.53,57.54 -149.75,69.66 69.37,3.39 120.98,25.1 155.11,65.71 34.13,40.33 51.32,100.12 51.32,179.36l0 138.76zm582.37 255.5l0 -1226.76 362.11 0c145.52,0 243.66,25.66 294.43,77.26 50.76,51.61 76.14,152.86 76.14,303.74l0 464.76c0,150.88 -25.38,252.12 -76.14,303.73 -50.76,51.61 -148.9,77.27 -294.43,77.27l-362.11 0zm438.25 -301.76l0 -621.56c0,-33.57 -5.08,-55.84 -14.95,-66.84 -9.87,-11 -30.18,-16.64 -61.2,-16.64l-76.14 0 0 788.51 76.14 0c30.46,0 50.76,-5.64 60.92,-16.92 10.15,-11.28 15.23,-33.57 15.23,-66.56zm458.28 301.76l0 -1226.76 539.5 0 0 219.97 -253.53 0 0 270.73 237.74 0 0 211.52 -237.74 0 0 304.58 277.51 0 0 219.97 -563.47 0zm1404.71 -505.94l129.73 0 -62.6 -578.69 -67.12 578.69zm-345.47 505.94l182.75 -1226.76 457.15 0 187.54 1226.76 -292.74 0 -33.84 -301.19 -181.06 0 -33.85 301.19 -285.96 0zm1126.94 -448.4l0 201.64c0,18.61 2.82,31.3 8.74,37.5 5.64,6.49 16.92,9.59 33.56,9.59 16.08,0 26.79,-3.11 32.44,-9.02 5.36,-6.21 8.17,-18.9 8.17,-38.07l0 -980 287.66 0 0 918.8c0,125.22 -22.84,210.11 -68.25,255.51 -45.41,45.12 -128.32,67.68 -248.46,67.68 -115.91,0 -195.72,-19.18 -239.71,-57.53 -44.28,-38.07 -66.28,-110.84 -66.28,-217.72l0 -188.38 252.13 0zm548.52 448.4l0 -1226.76 539.5 0 0 219.97 -253.53 0 0 270.73 237.74 0 0 211.52 -237.74 0 0 304.58 277.51 0 0 219.97 -563.47 0zm700.53 0l0 -1226.76 362.11 0c145.52,0 243.66,25.66 294.43,77.26 50.76,51.61 76.14,152.86 76.14,303.74l0 464.76c0,150.88 -25.38,252.12 -76.14,303.73 -50.76,51.61 -148.9,77.27 -294.43,77.27l-362.11 0zm438.25 -301.76l0 -621.56c0,-33.57 -5.08,-55.84 -14.95,-66.84 -9.87,-11 -30.18,-16.64 -61.2,-16.64l-76.14 0 0 788.51 76.14 0c30.46,0 50.76,-5.64 60.92,-16.92 10.15,-11.28 15.23,-33.57 15.23,-66.56zm813.9 -708.42l-69.66 0 0 379.03 69.66 0c36.94,0 61.75,-6.21 74.17,-18.62 12.41,-12.41 18.62,-35.25 18.62,-68.81l0 -203.33c0,-34.13 -6.21,-57.25 -18.62,-69.66 -12.41,-12.41 -37.22,-18.62 -74.17,-18.62zm89.39 700.25c0,-42.3 -7.89,-71.35 -23.4,-87.43 -15.8,-16.08 -45.41,-23.97 -88.28,-23.97l-47.38 0 0 421.33 -285.96 0 0 -1226.76 297.52 0c176.54,0 293.02,22.27 349.98,66.83 56.68,44.85 85.17,127.48 85.17,247.9l0 140.44c0,71.07 -15.51,125.22 -46.26,162.44 -31.02,36.94 -81.22,62.04 -151.16,74.74 64.86,9.3 113.09,31.31 144.11,65.99 31.02,34.68 46.82,83.76 46.82,146.93l0 321.5 -281.17 0 0 -309.93zm455.46 309.93l0 -1226.76 539.5 0 0 219.97 -253.53 0 0 270.73 237.74 0 0 211.52 -237.74 0 0 304.58 277.51 0 0 219.97 -563.47 0zm646.38 0l0 -219.97 322.9 -786.83 -292.45 0 0 -219.97 590.54 0 0 194.87 -330.24 811.93 330.24 0 0 219.97 -621 0zm1460.27 -724.22l79.53 0c35.53,0 58.94,-6.2 70.5,-18.33 11.57,-12.13 17.49,-35.25 17.49,-69.38l0 -109.7c0,-34.4 -5.92,-57.53 -17.49,-69.94 -11.56,-12.41 -34.96,-18.62 -70.5,-18.62l-79.53 0 0 285.96zm0 189.52l0 319.81 86.3 0c34.97,0 58.38,-6.21 70.23,-18.62 11.84,-12.41 17.77,-35.53 17.77,-69.94l0 -142.14c0,-34.13 -5.93,-57.53 -18.06,-70.22 -12.12,-12.69 -35.53,-18.9 -69.94,-18.9l-86.3 0zm461.94 279.2c0,98.14 -22.84,165.26 -68.81,201.35 -45.97,36.1 -139.32,54.15 -279.48,54.15l-396.23 0 0 -1226.76 382.13 0c140.44,0 234.07,18.33 280.61,55.27 46.53,36.94 69.94,104.34 69.94,201.92l0 107.45c0,67.68 -14.95,118.72 -44.84,153.13 -29.62,34.41 -79.53,57.54 -149.75,69.66 69.37,3.39 120.98,25.1 155.11,65.71 34.13,40.33 51.32,100.12 51.32,179.36l0 138.76zm159.34 255.5l0 -1226.76 539.5 0 0 219.97 -253.53 0 0 270.73 237.74 0 0 211.52 -237.74 0 0 304.58 277.51 0 0 219.97 -563.47 0zm700.53 0l0 -1226.76 285.96 0 0 1006.8 270.73 0 0 219.97 -556.69 0zm649.49 0l0 -1226.76 285.96 0 0 1006.8 270.73 0 0 219.97 -556.69 0zm992.7 -505.94l129.73 0 -62.6 -578.69 -67.12 578.69zm-345.47 505.94l182.75 -1226.76 457.15 0 187.54 1226.76 -292.74 0 -33.84 -301.19 -181.06 0 -33.85 301.19 -285.96 0zm1473.81 0l-170.91 -1226.76 294.15 0 104.91 1074.76 108.01 -1074.76 294.98 0 -172.59 1226.76 -458.56 0zm1040.36 0l-285.96 0 0 -1226.76 285.96 0 0 1226.76zm431.2 -409.49l0 119.01c0,31.87 6.49,54.43 19.18,67.68 12.69,13.26 34.13,19.75 64.58,19.75 33,0 55.28,-6.21 66.84,-18.9 11.56,-12.69 17.49,-36.66 17.49,-71.91l0 -86.87c0,-26.23 -1.7,-45.97 -5.08,-58.66 -3.11,-12.69 -8.74,-23.97 -16.36,-33.85 -18.9,-22.56 -62.04,-41.45 -129.74,-56.12 -31.02,-6.77 -54.99,-12.41 -71.91,-17.49 -79.53,-22.56 -133.96,-54.14 -163.85,-94.75 -29.62,-40.61 -44.56,-104.35 -44.56,-191.49l0 -113.38c0,-109.98 21.43,-186.69 64.01,-230.4 42.59,-43.43 116.48,-65.14 221.67,-65.14l84.6 0c65.99,0 120.14,5.64 162.73,16.92 42.3,11.28 75.57,29.33 99.83,54.15 19.47,19.18 32.72,43.71 40.61,73.61 7.61,29.61 11.56,77.26 11.56,142.7l0 95.04 -253.52 0 0 -76.71c0,-38.63 -5.08,-64.29 -15.23,-76.98 -10.44,-12.69 -31.03,-18.9 -62.61,-18.9 -30.46,0 -51.04,5.93 -61.75,17.77 -10.72,11.84 -16.08,33.85 -16.08,66.55l0 79.25c0,60.07 51.32,102.93 153.98,128.88 29.05,7.89 52.17,14.1 69.38,19.18 78.68,22 132.83,53.02 162.16,92.5 29.61,39.77 44.28,102.66 44.28,188.67l0 165.26c0,102.66 -24.26,176.26 -73.05,221.67 -48.78,45.12 -128.32,67.68 -238.31,67.68l-76.14 0c-121.26,0 -204.46,-20.58 -249.87,-62.04 -45.4,-41.17 -68.24,-117.6 -68.24,-228.99l0 -133.68 263.4 0zm712.94 409.49l0 -1006.8 -192.9 0 0 -219.97 671.76 0 0 219.97 -192.9 0 0 1006.8 -285.96 0zm816.43 -505.94l129.73 0 -62.6 -578.69 -67.12 578.69zm-345.47 505.94l182.75 -1226.76 457.15 0 187.54 1226.76 -292.74 0 -33.84 -301.19 -181.06 0 -33.85 301.19 -285.96 0z"/>
 </g>
</svg>
